# Blender 4.1.1
# www.blender.org
mtllib a_prop_TV1.mtl
o tv
v -40.122147 26.024326 39.984539
v 49.129505 73.658012 40.003880
v 42.437035 26.024326 39.984566
v -46.814632 73.658012 40.003845
v 1.157441 102.022392 39.353516
v -47.645126 98.927933 39.353500
v 49.960014 98.927933 39.353535
v 1.157467 93.640434 -41.114403
v 49.010128 90.545937 -36.527939
v -46.695194 90.545937 -36.527969
v 1.157466 50.080601 -37.336975
v 48.212200 65.383804 -34.032505
v -45.897282 65.383804 -34.032536
v -40.122128 26.024321 -28.818985
v 42.437054 26.024321 -28.818958
v -31.923090 86.629219 43.711086
v -37.882511 85.913704 41.601582
v -32.480949 90.773399 41.796436
v -34.065220 41.841961 41.583256
v -28.455061 41.971436 43.692368
v -27.996881 37.741650 41.768089
v 22.422068 41.971485 43.692577
v 21.929718 37.741650 41.768108
v 27.919218 41.830551 41.582897
v 28.404190 34.523232 36.723114
v 31.778461 85.959961 41.601425
v 33.221985 93.504784 34.638527
v 26.413778 90.773399 41.796455
v -39.289146 93.504784 34.638500
v -34.471363 34.523232 36.723095
v 25.861828 86.627190 43.711143
v -6.252645 101.731003 -10.224065
v 9.713912 94.896652 -11.464673
v 8.567565 101.731003 -10.224051
v -7.398991 94.896652 -11.464686
v -13.662758 103.144096 2.532588
v -15.955447 96.528343 3.265427
v -6.252657 104.557198 15.289245
v -7.399005 98.160019 17.995543
v 8.567551 104.557198 15.289250
v 9.713897 98.160019 17.995548
v 5.435674 108.803001 9.361176
v -3.120775 108.803001 9.361173
v 1.157453 109.759804 1.799757
v -7.398999 107.987099 1.996116
v -3.120768 107.171303 -5.368938
v 15.977663 103.144096 2.532600
v 18.270353 96.528343 3.265440
v 5.435681 107.171303 -5.368933
v 9.713902 107.987099 1.996123
v 4.008369 108.416199 0.182256
v 28.402321 164.629395 1.819085
v 2.179976 109.163200 1.819078
v 29.832022 163.962997 0.402773
v 31.421143 163.388107 1.819086
v 33.372646 164.297195 1.819087
v 29.832024 163.962997 3.235397
v 30.581673 165.526901 4.122435
v 27.960562 166.806198 1.819082
v 30.581671 165.526901 -0.484263
v 31.768862 168.395004 1.819086
v 5.786937 107.647598 1.819079
v 4.008368 108.416199 3.455902
v -26.087418 164.629395 1.819068
v -1.693462 108.416199 0.182254
v 0.134930 109.163200 1.819078
v -27.517118 163.962997 0.402755
v -29.106239 163.388107 1.819067
v -31.057747 164.297195 1.819066
v -27.517117 163.962997 3.235380
v -28.266766 165.526901 4.122415
v -25.645658 166.806198 1.819065
v -28.266768 165.526901 -0.484283
v -29.453959 168.395004 1.819066
v -1.693463 108.416199 3.455900
v -3.472031 107.647598 1.819076
v 46.489212 26.288874 42.738632
v -42.069248 18.858629 41.008709
v -44.174332 26.288874 42.738598
v 44.384129 18.858629 41.008736
v 46.489231 26.288872 -31.766386
v -44.174313 26.288872 -31.766417
v 44.384155 18.858627 -30.036480
v -42.069221 18.858627 -30.036505
v 36.986958 19.509510 34.502804
v 26.599354 0.000000 32.219921
v 24.085613 19.509510 34.502800
v 34.473213 0.000000 32.219921
v 34.473209 0.000001 23.415051
v 24.085615 19.509510 18.955835
v 26.599358 0.000001 23.415047
v 36.986969 19.509510 18.955839
v -34.672085 19.509510 34.502781
v -24.284466 0.000000 32.219902
v -32.158325 0.000000 32.219902
v -21.770725 19.509510 34.502785
v -32.158329 0.000001 23.415028
v -21.770723 19.509510 18.955820
v -34.672073 19.509510 18.955816
v -24.284462 0.000001 23.415031
v 35.893242 19.509508 -25.537352
v 25.822723 -0.000001 -23.254471
v 33.456223 -0.000001 -23.254471
v 23.385710 19.509508 -25.537354
v 33.456219 -0.000001 -14.449600
v 23.385706 19.509512 -9.990399
v 35.893230 19.509512 -9.990396
v 25.822720 -0.000001 -14.449602
v -33.578316 19.509508 -25.537374
v -23.507797 -0.000001 -23.254490
v -21.070791 19.509508 -25.537371
v -31.141296 -0.000001 -23.254492
v -31.141300 -0.000001 -14.449621
v -21.070795 19.509512 -9.990414
v -23.507801 -0.000001 -14.449618
v -33.578327 19.509512 -9.990417
vn 0.6699 0.0944 -0.7364
vn -0.7151 0.0504 -0.6972
vn -0.6690 0.0956 -0.7371
vn 0.7153 0.0510 -0.6970
vn -0.0000 -0.7631 -0.6463
vn 0.6043 -0.5863 -0.5396
vn -0.6043 -0.5862 -0.5395
vn -0.0000 -0.6315 0.7753
vn -0.6274 -0.4896 0.6055
vn 0.6274 -0.4896 0.6056
vn -0.0000 0.1869 0.9824
vn -0.7442 0.1374 0.6537
vn 0.7445 0.1381 0.6532
vn 0.7160 0.2361 0.6569
vn -0.7148 0.2374 0.6577
vn 0.1701 -0.1975 -0.9654
vn 0.7539 -0.1292 -0.6442
vn 0.1788 -0.6864 -0.7049
vn 0.7031 0.2151 -0.6778
vn 0.1689 0.2170 -0.9615
vn 0.1209 0.6275 -0.7692
vn -0.1715 0.2182 -0.9607
vn -0.1217 0.6275 -0.7691
vn -0.6998 0.2157 -0.6810
vn -0.4956 0.5888 -0.6385
vn -0.7526 -0.1311 -0.6452
vn -0.5988 -0.6303 -0.4941
vn -0.1785 -0.6865 -0.7049
vn 0.5986 -0.6312 -0.4933
vn 0.4956 0.5915 -0.6360
vn -0.1702 -0.1978 -0.9653
vn 0.4203 -0.4584 0.7831
vn -0.4728 -0.2335 0.8497
vn -0.4202 -0.4584 0.7831
vn 0.4727 -0.2335 0.8497
vn 0.8405 -0.5385 0.0596
vn 0.9455 -0.3237 0.0359
vn 0.4202 -0.6187 -0.6638
vn 0.4728 -0.4138 -0.7780
vn -0.4203 -0.6187 -0.6638
vn -0.4727 -0.4138 -0.7780
vn -0.2387 -0.9189 -0.3142
vn 0.2387 -0.9189 -0.3142
vn -0.0000 -0.9939 0.1101
vn 0.4774 -0.8733 0.0967
vn 0.2387 -0.8278 0.5077
vn -0.8405 -0.5385 0.0597
vn -0.9455 -0.3237 0.0358
vn -0.2387 -0.8278 0.5077
vn -0.4774 -0.8733 0.0967
vn 0.0083 -0.0087 0.9999
vn 0.9970 -0.0754 -0.0162
vn 0.9045 -0.4265 0.0004
vn 0.1317 0.2469 0.9601
vn -0.6394 0.7688 -0.0000
vn -0.9313 0.3643 -0.0000
vn 0.1389 0.2296 -0.9633
vn -0.0168 -0.0579 -0.9982
vn 0.8840 -0.4674 -0.0050
vn -0.0252 -0.0609 0.9978
vn -0.3886 -0.9214 -0.0000
vn -0.9085 0.4178 -0.0000
vn 0.0083 -0.0078 -0.9999
vn -0.9970 -0.0754 -0.0162
vn -0.0083 -0.0087 0.9999
vn -0.9045 -0.4265 0.0004
vn -0.1317 0.2469 0.9601
vn 0.6394 0.7688 -0.0000
vn 0.9313 0.3643 -0.0000
vn -0.1389 0.2296 -0.9633
vn 0.0168 -0.0579 -0.9982
vn -0.8840 -0.4674 -0.0050
vn 0.0252 -0.0609 0.9978
vn 0.3886 -0.9214 -0.0000
vn -0.0083 -0.0078 -0.9999
vn 0.9085 0.4178 -0.0000
vn -0.6402 -0.4472 -0.6246
vn 0.6513 0.3422 -0.6773
vn 0.6402 -0.4472 -0.6246
vn -0.6513 0.3422 -0.6773
vn -0.6402 -0.4472 0.6246
vn 0.6402 -0.4472 0.6246
vn -0.6513 0.3422 0.6773
vn 0.6513 0.3422 0.6773
vn -0.6990 0.1713 -0.6943
vn 0.6937 0.1712 -0.6996
vn 0.6990 0.1713 -0.6943
vn -0.6938 0.1712 -0.6996
vn -0.7107 0.2425 0.6604
vn 0.6669 0.2466 0.7031
vn 0.7107 0.2425 0.6604
vn -0.6669 0.2466 0.7032
vn -0.6937 0.1712 -0.6996
vn 0.6938 0.1712 -0.6996
vn -0.6669 0.2466 0.7031
vn 0.6669 0.2466 0.7032
vn -0.6986 0.1686 0.6954
vn 0.6950 0.1686 0.6989
vn -0.6951 0.1686 0.6989
vn 0.6985 0.1686 0.6954
vn -0.7121 0.2398 -0.6599
vn 0.6666 0.2442 -0.7043
vn -0.6665 0.2442 -0.7043
vn 0.7121 0.2398 -0.6599
vn 0.6986 0.1686 0.6954
vn -0.6950 0.1686 0.6989
vn -0.6985 0.1686 0.6954
vn 0.6951 0.1686 0.6989
vn -0.6666 0.2442 -0.7043
vn 0.6665 0.2442 -0.7043
vt 0.079609 0.279609
vt 0.896948 0.737973
vt 0.835653 0.279609
vt 0.018315 0.737973
vt 0.457631 0.997558
vt 0.010745 0.969231
vt 0.558730 0.007570
vt 0.619048 0.136508
vt 0.617338 0.010256
vt 0.558730 0.136508
vt 0.558730 0.265690
vt 0.617338 0.263248
vt 0.622466 0.262271
vt 0.807814 0.099634
vt 0.618071 0.158242
vt 0.808059 0.272772
vt 0.994139 0.262271
vt 0.998779 0.159463
vt 0.982418 0.004396
vt 0.634432 0.004396
vt 0.571184 0.181685
vt 0.573626 0.269353
vt 0.571429 0.007570
vt 0.623687 0.158242
vt 0.622711 0.262271
vt 0.634432 0.004640
vt 0.904518 0.969231
vt 0.156532 0.855433
vt 0.102076 0.848840
vt 0.151404 0.893284
vt 0.136996 0.424908
vt 0.188034 0.426129
vt 0.192186 0.387546
vt 0.652015 0.426129
vt 0.647619 0.387546
vt 0.702076 0.424908
vt 0.706471 0.358242
vt 0.737241 0.849328
vt 0.750427 0.918193
vt 0.688401 0.893284
vt 0.089377 0.918193
vt 0.133089 0.358242
vt 0.683517 0.855433
vt 0.299878 0.407326
vt 0.549939 0.805372
vt 0.549939 0.407326
vt 0.299878 0.805372
vt 0.518193 0.054701
vt 0.325763 0.005128
vt 0.357021 0.054701
vt 0.549451 0.005128
vt 0.504762 0.084249
vt 0.370452 0.084249
vt 0.486203 0.122100
vt 0.352137 0.121123
vt 0.467888 0.157997
vt 0.357021 0.182418
vt 0.518193 0.182418
vt 0.467399 0.195360
vt 0.453968 0.171184
vt 0.417094 0.171184
vt 0.499389 0.131624
vt 0.472283 0.134310
vt 0.467399 0.067644
vt 0.453968 0.097436
vt 0.398535 0.134310
vt 0.371673 0.131624
vt 0.403419 0.195360
vt 0.417094 0.097436
vt 0.403419 0.067644
vt 0.484005 0.132601
vt 0.390965 0.132601
vt 0.437607 0.269353
vt 0.435409 0.135287
vt 0.953602 0.330891
vt 0.975824 0.946032
vt 0.979976 0.330891
vt 0.953602 0.946032
vt 0.931135 0.946032
vt 0.912576 0.962882
vt 0.908669 0.946032
vt 0.871551 0.962882
vt 0.886447 0.946032
vt 0.830525 0.962882
vt 0.863980 0.946032
vt 0.789744 0.962882
vt 0.822955 0.962882
vt 0.789744 0.993651
vt 0.781929 0.962882
vt 0.748718 0.962882
vt 0.998291 0.330891
vt 0.926251 0.330891
vt 0.994383 0.962882
vt 0.953602 0.962882
vt 0.953602 0.993651
vt 0.024664 0.262027
vt 0.322589 0.264957
vt 0.318925 0.262027
vt 0.021001 0.264957
vt 0.023687 0.019292
vt 0.317949 0.019292
vt 0.020024 0.016361
vt 0.321612 0.016361
vt 0.082295 0.204640
vt 0.263004 0.098901
vt 0.082295 0.068865
vt 0.263004 0.174603
s 1
usemtl prop_TV_Lib.tga.png
f 1/1/1 2/2/2 3/3/3
f 4/4/4 2/2/2 1/1/1
f 4/4/4 5/5/5 2/2/2
f 6/6/6 5/5/5 4/4/4
f 7/7/7 8/8/8 9/9/9
f 5/10/5 8/8/8 7/7/7
f 5/10/5 6/11/6 8/8/8
f 8/8/8 6/11/6 10/12/10
f 9/13/9 11/14/11 12/15/12
f 8/16/8 11/14/11 9/13/9
f 8/16/8 10/17/10 11/14/11
f 13/18/13 11/14/11 10/17/10
f 14/19/14 11/14/11 13/18/13
f 14/19/14 15/20/15 11/14/11
f 9/13/9 2/21/2 7/22/7
f 12/15/12 2/21/2 9/13/9
f 12/15/12 3/23/3 2/21/2
f 15/20/15 3/23/3 12/15/12
f 6/22/6 13/24/13 10/25/10
f 4/21/4 13/24/13 6/22/6
f 4/21/4 14/26/14 13/24/13
f 1/23/1 14/26/14 4/21/4
f 2/2/2 5/5/5 7/27/7
f 11/14/11 15/20/15 12/15/12
f 16/28/16 17/29/17 18/30/18
f 16/28/16 19/31/19 17/29/17
f 20/32/20 19/31/19 16/28/16
f 20/32/20 21/33/21 19/31/19
f 22/34/22 21/33/21 20/32/20
f 22/34/22 23/35/23 21/33/21
f 24/36/24 23/35/23 22/34/22
f 24/36/24 25/37/25 23/35/23
f 26/38/26 25/37/25 24/36/24
f 26/38/26 27/39/27 25/37/25
f 28/40/28 27/39/27 26/38/26
f 28/40/28 29/41/29 27/39/27
f 18/30/18 29/41/29 28/40/28
f 18/30/18 17/29/17 29/41/29
f 23/35/23 30/42/30 21/33/21
f 25/37/25 30/42/30 23/35/23
f 30/42/30 19/31/19 21/33/21
f 17/29/17 19/31/19 30/42/30
f 17/29/17 30/42/30 29/41/29
f 18/30/18 31/43/31 16/28/16
f 28/40/28 31/43/31 18/30/18
f 28/40/28 26/38/26 31/43/31
f 20/44/20 31/45/31 22/46/22
f 16/47/16 31/45/31 20/44/20
f 22/34/22 26/38/26 24/36/24
f 31/43/31 26/38/26 22/34/22
f 32/48/32 33/49/33 34/50/34
f 35/51/35 33/49/33 32/48/32
f 36/48/36 35/49/35 32/50/32
f 37/51/37 35/49/35 36/48/36
f 38/48/38 37/49/37 36/50/36
f 39/51/39 37/49/37 38/48/38
f 39/49/39 40/48/40 41/51/41
f 38/50/38 40/48/40 39/49/39
f 38/50/38 42/52/42 40/48/40
f 43/53/43 42/52/42 38/50/38
f 43/53/43 44/54/44 42/52/42
f 45/55/45 44/54/44 43/53/43
f 45/55/45 46/56/46 44/54/44
f 32/57/32 46/56/46 45/55/45
f 32/57/32 34/58/34 46/56/46
f 47/48/47 41/49/41 40/50/40
f 48/51/48 41/49/41 47/48/47
f 34/48/34 48/49/48 47/50/47
f 33/51/33 48/49/48 34/48/34
f 34/59/34 49/60/49 46/61/46
f 47/62/47 49/60/49 34/59/34
f 47/62/47 50/63/50 49/60/49
f 40/64/40 50/63/50 47/62/47
f 40/64/40 42/65/42 50/63/50
f 45/66/45 36/67/36 32/68/32
f 43/69/43 36/67/36 45/66/45
f 43/69/43 38/70/38 36/67/36
f 46/71/46 49/72/49 44/73/44
f 44/74/44 50/63/50 42/65/42
f 44/74/44 49/60/49 50/63/50
f 51/75/51 52/76/52 53/77/53
f 51/75/51 54/78/54 52/76/52
f 55/79/55 54/78/54 51/75/51
f 55/79/55 56/80/56 54/78/54
f 57/81/57 56/80/56 55/79/55
f 57/81/57 58/82/58 56/80/56
f 52/83/52 58/82/58 57/81/57
f 52/83/52 59/84/59 58/82/58
f 54/85/54 59/84/59 52/83/52
f 54/85/54 60/86/60 59/84/59
f 56/87/56 60/86/60 54/85/54
f 56/87/56 61/88/61 60/86/60
f 58/89/58 61/88/61 56/87/56
f 58/89/58 59/90/59 61/88/61
f 62/77/62 55/76/55 51/91/51
f 63/75/63 55/76/55 62/77/62
f 63/75/63 57/78/57 55/76/55
f 53/92/53 57/78/57 63/75/63
f 53/92/53 52/79/52 57/78/57
f 59/93/59 60/94/60 61/95/61
f 64/76/64 65/75/65 66/77/66
f 67/78/67 65/75/65 64/76/64
f 67/78/67 68/79/68 65/75/65
f 69/80/69 68/79/68 67/78/67
f 69/80/69 70/81/70 68/79/68
f 71/82/71 70/81/70 69/80/69
f 71/82/71 64/83/64 70/81/70
f 72/84/72 64/83/64 71/82/71
f 72/84/72 67/85/67 64/83/64
f 73/86/73 67/85/67 72/84/72
f 73/86/73 69/87/69 67/85/67
f 74/88/74 69/87/69 73/86/73
f 74/88/74 71/89/71 69/87/69
f 72/90/72 71/89/71 74/88/74
f 66/92/66 70/78/70 64/79/64
f 75/75/75 70/78/70 66/92/66
f 75/75/75 68/76/68 70/78/70
f 76/77/76 68/76/68 75/75/75
f 76/77/76 65/91/65 68/76/68
f 74/95/74 73/94/73 72/93/72
f 77/96/77 78/97/78 79/98/79
f 80/99/80 78/97/78 77/96/77
f 81/100/81 79/98/79 82/101/82
f 77/96/77 79/98/79 81/100/81
f 83/102/83 82/101/82 84/103/84
f 81/100/81 82/101/82 83/102/83
f 81/100/81 80/99/80 77/96/77
f 83/102/83 80/99/80 81/100/81
f 79/98/79 84/103/84 82/101/82
f 78/97/78 84/103/84 79/98/79
f 85/104/85 86/105/86 87/106/87
f 88/107/88 86/105/86 85/104/85
f 89/105/89 90/104/90 91/107/91
f 92/106/92 90/104/90 89/105/89
f 92/104/92 88/105/88 85/106/85
f 89/107/89 88/105/88 92/104/92
f 87/104/87 91/105/91 90/106/90
f 86/107/86 91/105/91 87/104/87
f 93/106/87 94/107/93 95/105/94
f 96/104/85 94/107/93 93/106/87
f 97/107/91 98/106/95 99/104/96
f 100/105/89 98/106/95 97/107/91
f 99/106/96 95/107/94 97/105/91
f 93/104/87 95/107/94 99/106/96
f 96/106/85 100/107/89 94/105/93
f 98/104/95 100/107/89 96/106/85
f 101/106/97 102/107/98 103/105/99
f 104/104/100 102/107/98 101/106/97
f 105/107/101 106/106/102 107/104/103
f 108/105/104 106/106/102 105/107/101
f 107/106/103 103/107/99 105/105/101
f 101/104/97 103/107/99 107/106/103
f 104/106/100 108/107/104 102/105/98
f 106/104/102 108/107/104 104/106/100
f 109/104/105 110/105/106 111/106/107
f 112/107/108 110/105/106 109/104/105
f 113/105/104 114/104/109 115/107/101
f 116/106/110 114/104/109 113/105/104
f 116/104/110 112/105/108 109/106/105
f 113/107/104 112/105/108 116/104/110
f 111/104/107 115/105/101 114/106/109
f 110/107/106 115/105/101 111/104/107
